<?xml version="1.0" standalone="no"?>
<!DOCTYPE svg PUBLIC "-//W3C//DTD SVG 20010904//EN"
 "http://www.w3.org/TR/2001/REC-SVG-20010904/DTD/svg10.dtd">
<svg version="1.0" xmlns="http://www.w3.org/2000/svg"
 width="512.000000pt" height="512.000000pt" viewBox="0 0 512.000000 512.000000"
 preserveAspectRatio="xMidYMid meet">
<metadata>
Created by potrace 1.11, written by Peter Selinger 2001-2013
</metadata>
<g transform="translate(0.000000,512.000000) scale(0.100000,-0.100000)"
fill="#000000" stroke="none">
<path d="M1485 3705 c-486 -90 -829 -438 -910 -925 -22 -126 -16 -403 10 -520
126 -566 572 -879 1253 -880 291 0 555 60 752 172 91 52 84 25 109 406 16 242
20 275 37 292 20 20 119 50 166 50 l27 0 3 123 c2 67 2 125 0 130 -2 4 -228 7
-503 7 l-499 0 0 -135 0 -135 129 0 c143 0 183 -9 200 -46 7 -16 11 -92 11
-206 l0 -181 -43 -42 c-56 -56 -143 -84 -287 -92 -188 -10 -357 34 -474 122
-173 129 -261 334 -273 636 -14 335 56 569 217 729 129 130 259 176 470 167
273 -11 428 -127 504 -379 5 -16 22 -18 181 -18 l175 0 0 345 0 345 -195 0
-195 0 0 -76 0 -75 -62 44 c-75 53 -183 101 -293 129 -108 27 -393 34 -510 13z"/>
<path d="M3345 3700 c-205 -43 -383 -171 -464 -333 -117 -233 -86 -494 81
-673 113 -120 264 -204 563 -314 219 -80 342 -140 405 -197 73 -66 94 -111 94
-203 0 -122 -53 -203 -169 -256 -130 -60 -345 -54 -482 13 -103 51 -162 139
-204 306 l-21 87 -169 0 -169 0 0 -355 0 -355 193 2 192 3 3 76 3 77 67 -46
c137 -92 289 -139 477 -149 271 -13 492 68 649 238 112 121 166 263 166 438 0
173 -55 306 -175 426 -110 109 -235 175 -585 306 -287 107 -409 181 -451 273
-22 50 -25 152 -5 200 55 131 226 202 428 176 127 -15 174 -36 244 -105 54
-54 63 -68 87 -145 14 -47 28 -97 32 -112 l5 -28 170 0 170 0 0 315 0 315
-165 0 -165 0 0 -65 0 -66 -42 29 c-144 98 -313 143 -542 141 -88 0 -161 -7
-221 -19z"/>
</g>
</svg>
